<mxfile host="app.diagrams.net" modified="2022-05-04T15:07:06.763Z" agent="5.0 (Windows NT 10.0; Win64; x64) AppleWebKit/537.36 (KHTML, like Gecko) Chrome/101.0.4951.41 Safari/537.36 Edg/101.0.1210.32" etag="l6Q9G9Gc4iRu3F4FdzOw" version="17.4.6" type="github">
  <diagram id="fgculmn_3LN-1ZMX03tn" name="Page-1">
    <mxGraphModel dx="862" dy="488" grid="1" gridSize="10" guides="1" tooltips="1" connect="1" arrows="1" fold="1" page="1" pageScale="1" pageWidth="827" pageHeight="1169" math="0" shadow="0">
      <root>
        <mxCell id="0" />
        <mxCell id="1" parent="0" />
        <mxCell id="GtRvJI_vXLL7LirlXmv4-2" value="" style="rounded=1;whiteSpace=wrap;html=1;fillColor=none;" vertex="1" parent="1">
          <mxGeometry x="199" y="80" width="430" height="140" as="geometry" />
        </mxCell>
        <mxCell id="GtRvJI_vXLL7LirlXmv4-3" value="展示层" style="text;html=1;strokeColor=none;fillColor=none;align=center;verticalAlign=middle;whiteSpace=wrap;rounded=0;" vertex="1" parent="1">
          <mxGeometry x="110" y="135" width="60" height="30" as="geometry" />
        </mxCell>
        <mxCell id="GtRvJI_vXLL7LirlXmv4-4" value="" style="rounded=1;whiteSpace=wrap;html=1;fillColor=none;" vertex="1" parent="1">
          <mxGeometry x="210" y="260" width="420" height="140" as="geometry" />
        </mxCell>
        <mxCell id="GtRvJI_vXLL7LirlXmv4-5" value="业务层" style="text;html=1;strokeColor=none;fillColor=none;align=center;verticalAlign=middle;whiteSpace=wrap;rounded=0;" vertex="1" parent="1">
          <mxGeometry x="110" y="310" width="60" height="30" as="geometry" />
        </mxCell>
        <mxCell id="GtRvJI_vXLL7LirlXmv4-6" value="" style="rounded=1;whiteSpace=wrap;html=1;fillColor=none;" vertex="1" parent="1">
          <mxGeometry x="209" y="450" width="420" height="140" as="geometry" />
        </mxCell>
        <mxCell id="GtRvJI_vXLL7LirlXmv4-7" value="数据存储层" style="text;html=1;strokeColor=none;fillColor=none;align=center;verticalAlign=middle;whiteSpace=wrap;rounded=0;" vertex="1" parent="1">
          <mxGeometry x="110" y="500" width="79" height="30" as="geometry" />
        </mxCell>
        <mxCell id="GtRvJI_vXLL7LirlXmv4-8" value="PyQt5" style="rounded=1;whiteSpace=wrap;html=1;fillColor=default;" vertex="1" parent="1">
          <mxGeometry x="374" y="115" width="90" height="50" as="geometry" />
        </mxCell>
        <mxCell id="GtRvJI_vXLL7LirlXmv4-9" value="燃弧检测模块" style="rounded=1;whiteSpace=wrap;html=1;fillColor=default;" vertex="1" parent="1">
          <mxGeometry x="250" y="302.5" width="80" height="45" as="geometry" />
        </mxCell>
        <mxCell id="GtRvJI_vXLL7LirlXmv4-10" value="界面控制模块" style="rounded=1;whiteSpace=wrap;html=1;fillColor=default;" vertex="1" parent="1">
          <mxGeometry x="373.5" y="302.5" width="80" height="45" as="geometry" />
        </mxCell>
        <mxCell id="GtRvJI_vXLL7LirlXmv4-11" value="数据库操作模块" style="rounded=1;whiteSpace=wrap;html=1;fillColor=default;" vertex="1" parent="1">
          <mxGeometry x="490" y="302.5" width="90" height="45" as="geometry" />
        </mxCell>
        <mxCell id="GtRvJI_vXLL7LirlXmv4-12" value="SQLite数据库" style="rounded=1;whiteSpace=wrap;html=1;fillColor=default;" vertex="1" parent="1">
          <mxGeometry x="350" y="497.5" width="80" height="45" as="geometry" />
        </mxCell>
        <mxCell id="GtRvJI_vXLL7LirlXmv4-13" value="" style="endArrow=none;dashed=1;html=1;dashPattern=1 3;strokeWidth=2;rounded=0;" edge="1" parent="1">
          <mxGeometry width="50" height="50" relative="1" as="geometry">
            <mxPoint x="150" y="240" as="sourcePoint" />
            <mxPoint x="680" y="240" as="targetPoint" />
          </mxGeometry>
        </mxCell>
        <mxCell id="GtRvJI_vXLL7LirlXmv4-14" value="" style="endArrow=none;dashed=1;html=1;dashPattern=1 3;strokeWidth=2;rounded=0;" edge="1" parent="1">
          <mxGeometry width="50" height="50" relative="1" as="geometry">
            <mxPoint x="149" y="430" as="sourcePoint" />
            <mxPoint x="679" y="430" as="targetPoint" />
          </mxGeometry>
        </mxCell>
      </root>
    </mxGraphModel>
  </diagram>
</mxfile>
